<svg xmlns="http://www.w3.org/2000/svg" xmlns:xlink="http://www.w3.org/1999/xlink" width="1920" zoomAndPan="magnify" viewBox="0 0 1440 225" height="300" preserveAspectRatio="xMidYMid meet" version="1.0"><defs><clipPath id="b04e61e6c7"><path d="M 0 77.097656 L 1440 77.097656 L 1440 210.597656 L 0 210.597656 Z M 0 77.097656 " clip-rule="nonzero"/></clipPath><clipPath id="e2a6c52952"><path d="M 0 149.105469 L 1440 149.105469 L 1440 225 L 0 225 Z M 0 149.105469 " clip-rule="nonzero"/></clipPath><clipPath id="b086d04366"><path d="M 0 0.105469 L 1440 0.105469 L 1440 76 L 0 76 Z M 0 0.105469 " clip-rule="nonzero"/></clipPath><clipPath id="8032171115"><rect x="0" width="1440" y="0" height="76"/></clipPath></defs><g clip-path="url(#b04e61e6c7)"><path fill="#efeff1" d="M 1297.300781 210.46875 C 1247.953125 210.46875 1221.203125 188.464844 1201.640625 172.382812 C 1185.5625 159.121094 1175.785156 151.195312 1152.960938 151.195312 C 1130.140625 151.195312 1120.433594 159.195312 1104.28125 172.382812 C 1084.71875 188.464844 1057.972656 210.46875 1008.625 210.46875 C 959.277344 210.46875 932.53125 188.464844 912.96875 172.382812 C 896.890625 159.121094 887.109375 151.195312 864.289062 151.195312 C 841.464844 151.195312 831.761719 159.195312 815.609375 172.382812 C 796.046875 188.464844 769.296875 210.46875 719.949219 210.46875 C 670.605469 210.46875 643.855469 188.464844 624.292969 172.382812 C 608.214844 159.121094 598.433594 151.195312 575.613281 151.195312 C 552.792969 151.195312 543.085938 159.195312 526.933594 172.382812 C 507.371094 188.464844 480.625 210.46875 431.277344 210.46875 C 381.929688 210.46875 355.179688 188.464844 335.621094 172.382812 C 319.542969 159.121094 309.761719 151.195312 286.9375 151.195312 C 264.117188 151.195312 254.410156 159.195312 238.257812 172.382812 C 218.699219 188.464844 191.949219 210.46875 142.601562 210.46875 C 93.253906 210.46875 66.507812 188.464844 46.945312 172.382812 C 30.792969 159.195312 21.085938 151.195312 -1.734375 151.195312 L -1.734375 77.097656 C 47.613281 77.097656 74.359375 99.105469 93.921875 115.183594 C 110 128.445312 119.78125 136.375 142.601562 136.375 C 165.421875 136.375 175.128906 128.371094 191.28125 115.183594 C 210.84375 99.105469 237.59375 77.097656 286.9375 77.097656 C 336.285156 77.097656 363.035156 99.105469 382.597656 115.183594 C 398.675781 128.445312 408.453125 136.375 431.277344 136.375 C 454.097656 136.375 463.804688 128.371094 479.957031 115.183594 C 499.519531 99.105469 526.265625 77.097656 575.613281 77.097656 C 624.960938 77.097656 651.710938 99.105469 671.269531 115.183594 C 687.347656 128.445312 697.128906 136.375 719.949219 136.375 C 742.773438 136.375 752.476562 128.371094 768.632812 115.183594 C 788.191406 99.105469 814.941406 77.097656 864.289062 77.097656 C 913.636719 77.097656 940.382812 99.105469 959.945312 115.183594 C 976.023438 128.445312 985.804688 136.375 1008.625 136.375 C 1031.445312 136.375 1041.152344 128.371094 1057.304688 115.183594 C 1076.867188 99.105469 1103.613281 77.097656 1152.960938 77.097656 C 1202.308594 77.097656 1229.058594 99.105469 1248.617188 115.183594 C 1264.699219 128.445312 1274.476562 136.375 1297.300781 136.375 C 1320.121094 136.375 1329.828125 128.371094 1345.980469 115.183594 C 1365.539062 99.105469 1392.289062 77.097656 1441.636719 77.097656 L 1441.636719 151.195312 C 1418.816406 151.195312 1409.109375 159.195312 1392.957031 172.382812 C 1373.394531 188.464844 1346.648438 210.46875 1297.300781 210.46875 Z M 1297.300781 210.46875 " fill-opacity="1" fill-rule="nonzero"/></g><g clip-path="url(#e2a6c52952)"><g transform="matrix(1, 0, 0, 1, 0, 149)"><g clip-path="url(#8032171115)"><g clip-path="url(#b086d04366)"><path fill="#efeff1" d="M -15.546875 0.105469 L 1439.792969 0.105469 L 1439.792969 107.351562 L -15.546875 107.351562 Z M -15.546875 0.105469 " fill-opacity="1" fill-rule="nonzero"/></g></g></g></g></svg>